<svg id="Layer_1" data-name="Layer 1" xmlns="http://www.w3.org/2000/svg" viewBox="0 0 590.69 134.02"><defs><style>.cls-1{fill:#fff;}</style></defs><title>polytechnique_promo_Blanc</title><rect class="cls-1" y="114.88" width="31.88" height="19.15"/><rect class="cls-1" y="76.59" width="31.88" height="19.15"/><rect class="cls-1" width="31.88" height="19.15"/><rect class="cls-1" y="38.29" width="31.88" height="19.15"/><path class="cls-1" d="M274,274.46c3.8,0,5.24,0,6.17-.39.65-.25,2.92-1.34,2.92-5,0-3.51-1.33-4.25-2.42-4.69-1.28-.5-1.88-.5-6.67-.5Zm-8-16.59H278c5.34,0,8.21,1.13,10.13,2.86,2.27,2,3.31,4.94,3.31,8.55,0,5.62-3.12,8.3-4.74,9.28-2.62,1.58-5.49,1.73-8.3,1.83l-4.35.15v13.58h-8Z" transform="translate(-100.23 -238.55)"/><path class="cls-1" d="M305.67,282c0,3.8.74,6.52,4.29,6.52,4.3,0,4.3-4,4.3-6.52V269.43c0-2.52,0-5.59-4.2-5.59-4.39,0-4.39,4.15-4.39,5.59Zm-8.1-11.36c0-3.71.64-7.26,3.16-10,2.27-2.52,5.68-3.46,9.09-3.46,3.7,0,7.11.89,9.53,3.51,2,2.17,3.16,5.39,3.16,11.22v8.78c0,5.09-.83,8.35-3.11,10.82-3,3.26-7.36,3.61-9.68,3.61-3.56,0-9.38-1.29-11.21-7.41a27.34,27.34,0,0,1-.94-7.31Z" transform="translate(-100.23 -238.55)"/><polygon class="cls-1" points="232.02 19.31 240.12 19.31 240.12 48.8 256.07 48.8 256.07 55.56 232.02 55.56 232.02 19.31"/><path class="cls-1" d="M368.16,294.12V279.79L356.7,257.87h8.55l4.58,9c.36.69,1.79,3.8,2.08,4.44h.25c.69-1.53.84-1.78,2.07-4.35l4.4-9.13h8.44L376.16,279.5v14.62Z" transform="translate(-100.23 -238.55)"/><polygon class="cls-1" points="317.69 19.31 317.69 25.93 308.65 25.93 308.65 55.56 300.36 55.56 300.36 25.93 291.12 25.93 291.12 19.31 317.69 19.31"/><polygon class="cls-1" points="326.09 19.31 350.44 19.31 350.44 25.93 333.99 25.93 333.99 33.64 345.3 33.64 345.3 40.25 334.09 40.25 334.09 48.8 351.57 48.8 351.57 55.56 326.09 55.56 326.09 19.31"/><path class="cls-1" d="M460,270.07c0-8.3,4.44-13,12.89-13a13.16,13.16,0,0,1,8,2.41c3.26,2.57,3.65,7,3.75,9.94h-8c-.06-1.78-.16-5.74-4.11-5.74a4.69,4.69,0,0,0-3,1.14,5.19,5.19,0,0,0-1.33,3.95v13.78c0,2,0,5.78,4.4,5.78,3.26,0,4.24-2.66,4.24-6.57h8a22.61,22.61,0,0,1-.34,4.44,10.07,10.07,0,0,1-3.81,6.48c-2.56,2.07-6.32,2.42-7.9,2.42-4.2,0-7.11-1-9.38-3.22-1.48-1.43-3.41-3.5-3.41-10.91Z" transform="translate(-100.23 -238.55)"/><polygon class="cls-1" points="394.99 19.31 403.04 19.31 403.04 33.04 413.22 33.04 413.22 19.31 421.37 19.31 421.37 55.56 413.36 55.56 413.36 39.91 403.09 39.91 403.09 55.56 394.99 55.56 394.99 19.31"/><path class="cls-1" d="M532.47,257.87h7.6l9.33,16.94c.4.74.89,1.72,1.24,2.47.14.3.64,1.63.79,1.87h.25l-.2-3.65c-.15-2.47-.15-2.77-.15-4.15V257.87h7.31v36.25h-6.52l-9.63-17.59a51.11,51.11,0,0,1-2.71-6h-.25c.05,1,.25,5.63.25,6.57v17h-7.31Z" transform="translate(-100.23 -238.55)"/><polygon class="cls-1" points="467.95 55.56 467.95 52.35 472.19 52.35 472.19 22.47 467.95 22.47 467.95 19.31 484.49 19.31 484.49 22.47 480.2 22.47 480.2 52.26 484.49 52.26 484.49 55.56 467.95 55.56"/><path class="cls-1" d="M604.78,277.53a5.14,5.14,0,0,1,3.8,1.92,7.22,7.22,0,0,1,.64.94v-11c0-2.66-.15-5.58-4.3-5.58s-4.29,4.3-4.29,5.58V282c0,3.9.79,6.52,4.34,6.52a3.6,3.6,0,0,0,3.16-1.43c-1.13-1.83-1.72-2.33-3.35-2.82Zm15.31,20a8,8,0,0,1-4-.74,6.44,6.44,0,0,1-3.52-3.75,14.2,14.2,0,0,1-7.89,2.12c-3.56,0-9.39-1.29-11.22-7.41a27.68,27.68,0,0,1-.93-7.31v-9.73c0-3.71.64-7.26,3.16-10,2.27-2.52,5.67-3.46,9.09-3.46,3.7,0,7.11.89,9.53,3.51,2,2.17,3.16,5.38,3.16,11.21v8.8a20.33,20.33,0,0,1-1,7.31,3.68,3.68,0,0,0,3.66,1.67Z" transform="translate(-100.23 -238.55)"/><path class="cls-1" d="M628.84,257.87h8.25v23.9c0,2.17,0,6.67,4.88,6.67,1.54,0,5.09,0,5.09-6.62V257.87h8.05v24c0,2.17,0,7.41-3.75,10.42a13.84,13.84,0,0,1-8.94,2.76c-3.8,0-7.7-.93-9.94-3-3.5-3.31-3.64-7.45-3.64-10.71Z" transform="translate(-100.23 -238.55)"/><polygon class="cls-1" points="565.2 19.31 589.55 19.31 589.55 25.93 573.11 25.93 573.11 33.64 584.42 33.64 584.42 40.25 573.2 40.25 573.2 48.8 590.69 48.8 590.69 55.56 565.2 55.56 565.2 19.31"/><path class="cls-1" d="M266.16,317.14h10.67l4.29,15.11c.45,1.63.65,2.18,1,3.81.2.74.94,3.9,1.09,4.54h.25a85.63,85.63,0,0,1,2-8.49l4.25-15h10.72V353.4h-7V333.88c0-2.56.2-6.86.34-10.32h-.2l-7.51,29.84h-5.47l-7.72-29.84h-.24c.05,1.68.34,9,.34,10.57V353.4h-6.86Z" transform="translate(-100.23 -238.55)"/><path class="cls-1" d="M318.32,341.29c0,3.81.74,6.52,4.3,6.52,4.29,0,4.29-4,4.29-6.52V328.7c0-2.52,0-5.58-4.19-5.58-4.4,0-4.4,4.14-4.4,5.58Zm-8.1-11.35c0-3.71.64-7.27,3.16-10,2.28-2.53,5.68-3.46,9.09-3.46,3.71,0,7.12.89,9.53,3.51,2,2.17,3.16,5.38,3.16,11.21V340c0,5.09-.84,8.35-3.11,10.81-3,3.27-7.36,3.61-9.68,3.61-3.56,0-9.38-1.29-11.21-7.41a27.29,27.29,0,0,1-.94-7.31Z" transform="translate(-100.23 -238.55)"/><path class="cls-1" d="M345.88,317.14h7.61l9.34,16.94c.39.74.88,1.73,1.23,2.47.15.3.64,1.63.79,1.88h.24l-.19-3.66c-.15-2.47-.15-2.77-.15-4.15V317.14h7.32V353.4h-6.53l-9.63-17.59a52.78,52.78,0,0,1-2.72-6H353c0,1,.24,5.64.24,6.57v17h-7.31Z" transform="translate(-100.23 -238.55)"/><polygon class="cls-1" points="307.94 78.58 307.94 85.21 298.91 85.21 298.91 114.84 290.61 114.84 290.61 85.21 281.37 85.21 281.37 78.58 307.94 78.58"/><path class="cls-1" d="M425,332.8c4.49,0,5.19,0,6.33-.4,2.52-.88,2.71-2.86,2.71-4.84,0-2.52-.79-3.75-2.37-4.34-1.23-.45-2.22-.45-6.67-.45Zm0,20.6h-7.86V317.14h11.71c5.88,0,13.34.79,13.34,10.52,0,4.6-1.83,8.1-6.91,9.63l7.9,16.11h-8.65l-6.86-14.82H425Z" transform="translate(-100.23 -238.55)"/><path class="cls-1" d="M471.94,306.87,464.63,314h-5l4.65-7.16Zm-19.76,10.27h24.35v6.62H460.08v7.7h11.31v6.62H460.18v8.54h17.49v6.78H452.18Z" transform="translate(-100.23 -238.55)"/><path class="cls-1" d="M500.24,323.61H500l-4,16.4h8.15Zm4.69-6.47L515.4,353.4h-7.75l-1.83-7.22H494.71l-1.88,7.22h-7.75l10.22-36.26Z" transform="translate(-100.23 -238.55)"/><polygon class="cls-1" points="423.18 78.58 431.28 78.58 431.28 108.07 447.24 108.07 447.24 114.84 423.18 114.84 423.18 78.58"/><path class="cls-1" d="M193.93,276.77h0a1,1,0,0,1-.75.37,3.88,3.88,0,0,1,.31,1.47,5.49,5.49,0,0,1-.3,1.91c.37,0,.75,0,.75,0l.77,0a5.48,5.48,0,0,1-.29-1.91,3.7,3.7,0,0,1,.31-1.47A1,1,0,0,1,193.93,276.77Z" transform="translate(-100.23 -238.55)"/><path class="cls-1" d="M190.38,274.35a4.57,4.57,0,0,1,1.71,1.54c-.2.08-.41.17-.63.28-2.05,1-1.64,4.55.18,4.6l.76-.1a4.71,4.71,0,0,0,.44-1.36.7.7,0,0,1-.6.42c-.42,0-.76-.47-.76-1.05s.34-1,.76-1a.76.76,0,0,1,.66.55,3.35,3.35,0,0,0-.37-1.44.2.2,0,0,1,0-.21.19.19,0,0,1,.2-.05.94.94,0,0,0,1-.46.14.14,0,0,1,.26,0s.41.67,1,.46a.19.19,0,0,1,.2.05.2.2,0,0,1,0,.21,3.21,3.21,0,0,0-.38,1.44.77.77,0,0,1,.67-.55c.41,0,.75.47.75,1.05s-.34,1-.75,1a.73.73,0,0,1-.61-.42,4.36,4.36,0,0,0,.45,1.36l.76.1c1.81,0,2.23-3.59.17-4.6-.22-.11-.43-.2-.63-.28a4.39,4.39,0,0,1,1.71-1.53,4.89,4.89,0,0,0,1.93-1.73.18.18,0,0,0-.06-.24.17.17,0,0,0-.25.06,4.67,4.67,0,0,1-1.85,1.56,4.62,4.62,0,0,0-2,1.7,3,3,0,0,1-1.32-.84,0,0,0,0,0-.05,0,2.94,2.94,0,0,1-1.33.83,4.7,4.7,0,0,0-1.95-1.7,4.54,4.54,0,0,1-1.84-1.55.18.18,0,0,0-.25-.07.17.17,0,0,0-.06.25A4.83,4.83,0,0,0,190.38,274.35Z" transform="translate(-100.23 -238.55)"/><path class="cls-1" d="M208.72,289a1.46,1.46,0,0,0-.12-1.22,2.56,2.56,0,0,0-1.12-.59.75.75,0,0,0-.2-.74,18.55,18.55,0,0,0-3.35-1.91c-.7-.25-2.79-.91-3.45-1l-1.09-.2c-.23-.24-.45-.45-.67-.64a7.35,7.35,0,0,0,2.48-3.08c0-.52-.24-.65-.24-.65s.44-.19.31-.53a10.5,10.5,0,0,1-.34-2.22,1.35,1.35,0,0,1,.84-.23.65.65,0,0,0-.63-.45,1,1,0,0,0-.52.26c-.15.13-.11.5-.11.74a7.3,7.3,0,0,1-.1,1.62c-.21.62-.21.91,0,1.15a23.94,23.94,0,0,1-2.81,2.6,6.2,6.2,0,0,0-2.93-.65v0h-1.57v0a6.35,6.35,0,0,0-2.94.64,24.63,24.63,0,0,1-2.8-2.59c.23-.24.23-.53,0-1.15a7.36,7.36,0,0,1-.1-1.63c0-.23.05-.6-.11-.73a.92.92,0,0,0-.52-.26.65.65,0,0,0-.63.45,1.35,1.35,0,0,1,.84.23,10.5,10.5,0,0,1-.34,2.22c-.13.34.31.53.31.53s-.26.13-.23.65a7.21,7.21,0,0,0,2.47,3.08c-.21.19-.43.4-.66.64l-1.09.2c-.66.14-2.76.8-3.45,1a18.85,18.85,0,0,0-3.35,1.92.72.72,0,0,0-.21.73,2.64,2.64,0,0,0-1.12.6,1.46,1.46,0,0,0-.11,1.22.39.39,0,0,0,.36.21s-.18-1.16.77-1.29a4.28,4.28,0,0,1,.86,0s1.37-.83,1.75-1,1.12-1.32,1.12-1.32a3.2,3.2,0,0,0,1.09.25,6.85,6.85,0,0,0,2-1.14l-.16.16,1.68.09h.87a26.7,26.7,0,0,1-5.17,4.19,22.16,22.16,0,0,0-5,4.14c-1.59,1.82-2.17,3.1-1.79,3.91.27.57,1,.84,2.09.8,3.25-.12,5.23-.75,5.92-1.87a5.29,5.29,0,0,0-.12,1.18,13.24,13.24,0,0,0-1.59,3.56.85.85,0,0,0,.39,1.12c-.32.67-.25,1.38-.68,1.62-1.05.57-.58.94-.58.94l1-.16.83-2.14a.51.51,0,0,0,.33-.07c.59-.41.14-1.89,1.19-4.07.42.11.47-.15.58-1.15,0-.38.1-.85.17-1.31a5.08,5.08,0,0,0,1.7-.82,15.86,15.86,0,0,0,2,7.59c1,1.8,2.32,3.05,3.13,3.05s2.09-1.25,3.13-3.05a15.77,15.77,0,0,0,2-7.57,5.15,5.15,0,0,0,1.68.8c.08.46.14.93.18,1.31.1,1,.15,1.26.57,1.16,1,2.17.61,3.65,1.2,4.06a.47.47,0,0,0,.32.07l.84,2.14,1,.16s.47-.37-.57-.94c-.44-.24-.37-.94-.68-1.62a.85.85,0,0,0,.38-1.12,13,13,0,0,0-1.58-3.55,5.93,5.93,0,0,0-.13-1.19c.69,1.12,2.67,1.75,5.92,1.87,1.12,0,1.82-.23,2.09-.8.39-.81-.2-2.09-1.79-3.91a22.62,22.62,0,0,0-5-4.14,26.73,26.73,0,0,1-5.18-4.19c.29,0,.63,0,.87,0l1.69-.09-.16-.16a6.82,6.82,0,0,0,2,1.14,3.29,3.29,0,0,0,1.1-.25s.73,1.15,1.11,1.32,1.75,1,1.75,1a4.38,4.38,0,0,1,.87,0c.94.13.77,1.29.77,1.29A.4.4,0,0,0,208.72,289Zm-14.83,2.81c1.05,0,2,0,2.93.1l.35.05.14.35c.15.34.31.67.49,1a24,24,0,0,1-7.79,0,9.33,9.33,0,0,0,.5-1c.05-.12.09-.23.14-.34l.35-.06C191.89,291.82,192.86,291.79,193.89,291.79Zm-4.42,4.2c-.05-.47-.07-1-.08-1.47a27.28,27.28,0,0,0,9.06,0,13.68,13.68,0,0,1-.08,1.46A31.22,31.22,0,0,1,189.47,296Zm8.72,1.3a13.89,13.89,0,0,1-.33,1.44,31,31,0,0,1-7.88,0,14.09,14.09,0,0,1-.33-1.45A30.16,30.16,0,0,0,198.19,297.29Zm-17.18,0a13.8,13.8,0,0,1,3.29-5.58.08.08,0,0,0,0-.1.08.08,0,0,0-.11,0,11.81,11.81,0,0,0-3.77,5.73l-.83.05c-.62,0-1.4-.05-1.62-.51a.82.82,0,0,1-.06-.32c0-.48.33-1.38,1.77-3a21.7,21.7,0,0,1,5-3.9,22,22,0,0,0,5.94-4.81c0,.4-.06.86-.06,1.1,0,.47,0,.93.06,1.38s.05.92.05,1.39a8,8,0,0,1-.68,3.38,4.63,4.63,0,0,1-4.21,3.22,15.5,15.5,0,0,1,2.61-5.46.08.08,0,0,0,0-.1.07.07,0,0,0-.1,0,13.89,13.89,0,0,0-3.08,5.74l0,0C184.91,296.47,183.46,297.08,181,297.31Zm12.91,7.43c-.22,0-1-.46-2-1.86,1.23.06,2.81.06,4,0C195,304.28,194.15,304.74,193.92,304.74Zm2.85-3.22a37.27,37.27,0,0,1-5.69,0,15,15,0,0,1-.65-1.43,34.65,34.65,0,0,0,7,0A14,14,0,0,1,196.77,301.52Zm6.33-11.87a21.54,21.54,0,0,1,5,3.89c1.45,1.66,1.77,2.56,1.77,3a.63.63,0,0,1-.06.31c-.22.46-1,.53-1.61.51l-.84-.05a11.85,11.85,0,0,0-3.77-5.73.07.07,0,1,0-.1.1,13.63,13.63,0,0,1,3.29,5.59c-2.45-.24-3.9-.85-4.21-1.79a.16.16,0,0,0,0-.06,13.79,13.79,0,0,0-3.08-5.73.07.07,0,1,0-.1.1,15.49,15.49,0,0,1,2.6,5.46,4.64,4.64,0,0,1-4.21-3.22,8,8,0,0,1-.68-3.38c0-.47,0-.94.06-1.39s.05-.91.05-1.38c0-.24,0-.7-.06-1.1A22.14,22.14,0,0,0,203.1,289.65Z" transform="translate(-100.23 -238.55)"/><path class="cls-1" d="M193.92,269.07a21.67,21.67,0,1,0,21.67,21.67A21.69,21.69,0,0,0,193.92,269.07Zm0,42.6a20.93,20.93,0,1,1,20.93-20.93A21,21,0,0,1,193.92,311.67Z" transform="translate(-100.23 -238.55)"/><path class="cls-1" d="M193.54,340.86a.54.54,0,0,0,.38.15.51.51,0,0,0,.37-.15l2.37-2.37a.53.53,0,0,0,0-.75l-2.37-2.37a.56.56,0,0,0-.37-.15.56.56,0,0,0-.38.15l-2.37,2.37a.53.53,0,0,0,0,.75Zm.38-5,2.26,2.26-2.26,2.26-2.26-2.26Z" transform="translate(-100.23 -238.55)"/><path class="cls-1" d="M178.77,271.53a26,26,0,0,0-2.07,1.85c-1.61-1.26-2.59-2-2.6-2a.54.54,0,0,0-.38-.15.69.69,0,0,0-.49.23L172,272.94a.61.61,0,0,0,0,.87s.88.87,2.35,2.29a23.72,23.72,0,0,0-1.57,2.37l-3-1.26a.54.54,0,0,0-.25-.06.65.65,0,0,0-.57.37l-.86,1.77a.62.62,0,0,0,.26.83s1.07.61,2.86,1.59a23.51,23.51,0,0,0-.88,2.65l-3.24-.44H167a.63.63,0,0,0-.61.53l-.37,1.93a.63.63,0,0,0,.47.74l3.17.79a24.91,24.91,0,0,0-.17,2.75l-3.24.4a.61.61,0,0,0-.55.68l.14,2a.61.61,0,0,0,.6.59h0l3.26,0a24.14,24.14,0,0,0,.58,2.81l-3,1.23a.63.63,0,0,0-.36.8l.65,1.86a.62.62,0,0,0,.59.43.57.57,0,0,0,.18,0l3.14-.89a24.61,24.61,0,0,0,1.24,2.46c-1.63,1.22-2.59,2-2.6,2a.59.59,0,0,0-.25.38.67.67,0,0,0,.11.49l1.1,1.63a.64.64,0,0,0,.53.29.6.6,0,0,0,.32-.1l2.81-1.68a24.26,24.26,0,0,0,1.84,2.07c-1.26,1.61-2,2.58-2,2.59a.61.61,0,0,0,.09.87l1.48,1.29a.65.65,0,0,0,.43.17.61.61,0,0,0,.45-.2l2.28-2.35a24.18,24.18,0,0,0,2.39,1.59c-.79,1.87-1.25,3-1.25,3a.59.59,0,0,0,0,.45.68.68,0,0,0,.34.37l1.77.86a.67.67,0,0,0,.28.06.61.61,0,0,0,.55-.33s.6-1.07,1.58-2.85a27,27,0,0,0,2.63.88c-.28,2-.43,3.21-.44,3.22a.63.63,0,0,0,.1.44.61.61,0,0,0,.42.27l1.93.37.12,0a.63.63,0,0,0,.62-.48s.3-1.2.79-3.17c.28,0,.57.07.86.09v4.61c0,.93-3.16,1.23-5.4,1.48l-.83.1a3.82,3.82,0,0,0-2.71,1.21,1.72,1.72,0,0,0-.36,1.25h22.55a1.72,1.72,0,0,0-.36-1.25,3.8,3.8,0,0,0-2.71-1.21l-.83-.1c-2.23-.25-5.4-.55-5.4-1.48v-.33l-.94.07h-.08a1.09,1.09,0,0,1-1.11-1c0-.12-.18-1.34-.42-3.29h.49c.25,2,.41,3.22.41,3.23a.62.62,0,0,0,.63.56h0l2-.14a.65.65,0,0,0,.46-.22.6.6,0,0,0,.14-.42s0-1.23,0-3.26a26,26,0,0,0,2.79-.57c.75,1.88,1.22,3,1.22,3a.62.62,0,0,0,.59.4.6.6,0,0,0,.22,0l1.85-.64a.65.65,0,0,0,.38-.33.59.59,0,0,0,0-.45s-.33-1.19-.9-3.13a25,25,0,0,0,2.48-1.25c1.22,1.63,2,2.59,2,2.6a.61.61,0,0,0,.5.26.7.7,0,0,0,.37-.11l1.63-1.11a.62.62,0,0,0,.27-.41.53.53,0,0,0-.08-.44l-1.68-2.81a24.2,24.2,0,0,0,2.08-1.84l2.59,2a.57.57,0,0,0,.38.14.62.62,0,0,0,.49-.23l1.29-1.48a.63.63,0,0,0,.16-.48.58.58,0,0,0-.19-.4l-2.35-2.27a25.07,25.07,0,0,0,1.57-2.38c1.88.8,3,1.26,3,1.26a.54.54,0,0,0,.25.06.66.66,0,0,0,.58-.37l.85-1.76a.62.62,0,0,0-.26-.84s-1.07-.61-2.85-1.59a25.71,25.71,0,0,0,.88-2.65l3.23.44h.11a.63.63,0,0,0,.6-.52l.37-1.93a.67.67,0,0,0-.1-.5.58.58,0,0,0-.37-.24l-3.16-.8a24.92,24.92,0,0,0,.16-2.75l3.24-.41a.61.61,0,0,0,.55-.68l-.13-2a.63.63,0,0,0-.61-.6h0l-3.26.05a23.72,23.72,0,0,0-.58-2.81c1.89-.76,3-1.23,3-1.24a.63.63,0,0,0,.36-.8l-.65-1.85a.62.62,0,0,0-.58-.44.58.58,0,0,0-.19,0s-1.19.33-3.14.9a23.58,23.58,0,0,0-1.24-2.46c1.63-1.23,2.59-2,2.6-2a.59.59,0,0,0,.25-.38.67.67,0,0,0-.11-.49l-1.1-1.62a.62.62,0,0,0-.53-.29.57.57,0,0,0-.32.09s-1.07.63-2.81,1.69a24.26,24.26,0,0,0-1.84-2.07c1.26-1.61,2-2.59,2-2.6a.57.57,0,0,0,.14-.42.68.68,0,0,0-.23-.45l-1.48-1.29a.72.72,0,0,0-.44-.16.57.57,0,0,0-.44.2s-.87.88-2.28,2.35a26.67,26.67,0,0,0-2.39-1.58c.79-1.88,1.25-3,1.25-3a.59.59,0,0,0,0-.45.65.65,0,0,0-.34-.37l-1.77-.86a.73.73,0,0,0-.29-.07.59.59,0,0,0-.54.34s-.61,1.07-1.59,2.86a26,26,0,0,0-2.62-.88c.28-2,.43-3.22.43-3.23a.59.59,0,0,0-.1-.46.71.71,0,0,0-.41-.26l-1.93-.37h-.13a.61.61,0,0,0-.61.48s-.31,1.19-.79,3.18q-.44-.06-.87-.09v-4.61c0-.93,3.17-1.24,5.4-1.48l.83-.1a3.8,3.8,0,0,0,2.71-1.21,1.72,1.72,0,0,0,.36-1.25H182.64A1.72,1.72,0,0,0,183,259a3.82,3.82,0,0,0,2.71,1.21l.83.1c2.24.24,5.4.55,5.4,1.48v.31l.95-.06H193a1.1,1.1,0,0,1,1.12,1c0,.14.18,1.35.42,3.3H194c-.25-2-.41-3.23-.41-3.24a.62.62,0,0,0-.64-.56h0l-2,.14a.65.65,0,0,0-.45.22.6.6,0,0,0-.14.42s0,1.23,0,3.27a25.52,25.52,0,0,0-2.79.57c-.76-1.89-1.23-3-1.24-3a.6.6,0,0,0-.58-.4.57.57,0,0,0-.22,0l-1.85.64a.62.62,0,0,0-.41.78s.33,1.19.9,3.14a23.74,23.74,0,0,0-2.47,1.24c-1.23-1.62-2-2.59-2-2.6a.57.57,0,0,0-.49-.26.63.63,0,0,0-.37.12l-1.63,1.1a.64.64,0,0,0-.27.41.56.56,0,0,0,.08.44S177.72,269.79,178.77,271.53Zm15.15,42.05a22.84,22.84,0,1,1,22.84-22.84A22.86,22.86,0,0,1,193.92,313.58Z" transform="translate(-100.23 -238.55)"/><path class="cls-1" d="M171.87,341.63l-.42.12h0c-.25-1.27-.46-2.39-.65-3.44h0l.46-.14a2.43,2.43,0,0,1,0-.35c-.63.21-1.2.41-1.8.63h0c0,.11,0,.22.05.33l.48-.16h0c.19,1,.38,2,.66,3.43h0l-.43.16h0l.07.32c.65-.24,1.22-.43,1.75-.59a2,2,0,0,1-.06-.34Z" transform="translate(-100.23 -238.55)"/><path class="cls-1" d="M175.19,338.84l0-.23a1.92,1.92,0,0,0-.56-1.28,1.25,1.25,0,0,0-.79-.26,1.78,1.78,0,0,0-.39,0,1.53,1.53,0,0,0-1,.64,1.75,1.75,0,0,0-.2,1.27l.09.52.09.62a3.27,3.27,0,0,0,.25.81,1.15,1.15,0,0,0,1.09.61,1.34,1.34,0,0,0,.35,0,1.53,1.53,0,0,0,1.07-.59,1.69,1.69,0,0,0,.17-1.3C175.27,339.35,175.23,339.06,175.19,338.84Zm-1.2,2h-.13c-.36,0-.46-.33-.52-.69l-.09-.57,0-.09c0-.28-.08-.57-.12-.82h0c0-.17-.09-.68.44-.78h.16c.37,0,.42.33.46.6v0c.07.47.15,1,.22,1.46C174.45,340.26,174.51,340.72,174,340.82Z" transform="translate(-100.23 -238.55)"/><path class="cls-1" d="M164.5,340.46c.11.51.52,2.21.56,2.36h0l-1.23-1.23-.56-.55-.27.12-.53.25c.34,1.44.65,2.7,1,4l.72-.35c0-.18-.63-2.54-.64-2.59h0a11.88,11.88,0,0,1,.91.91l1,1.06c.19-.08.43-.2.66-.29-.31-1.37-.59-2.69-.86-4Z" transform="translate(-100.23 -238.55)"/><path class="cls-1" d="M169,341.05a1.24,1.24,0,0,0-.75-.28l-.54,0c-.28,0-.57-.07-.61-.37a.48.48,0,0,1,.26-.49l.19-.08a.64.64,0,0,1,.2,0,.67.67,0,0,1,.56.29l.59-.6A1.29,1.29,0,0,0,168,339a1.67,1.67,0,0,0-.47.07,1.84,1.84,0,0,0-.43.17l0,0h0a1.29,1.29,0,0,0-.67,1.31c.11.79.68.91,1.31,1s.84.09.88.41a.55.55,0,0,1-.3.56l0,0a.77.77,0,0,1-.17.07l-.23,0a.67.67,0,0,1-.61-.37l-.62.63a1.18,1.18,0,0,0,1,.49,2.39,2.39,0,0,0,.64-.1,2.66,2.66,0,0,0,.4-.17l0,0a1.3,1.3,0,0,0,.3-.23,1.32,1.32,0,0,0,.42-1.22A1,1,0,0,0,169,341.05Z" transform="translate(-100.23 -238.55)"/><path class="cls-1" d="M150.25,346.83l-.86.21.72,2.34.11.35a.87.87,0,0,1,0,.69.52.52,0,0,1-.34.23h0l-.16,0c-.43,0-.58-.47-.64-.68-.26-.8-.57-1.75-.84-2.67-.28.06-.58.12-.9.16.3,1,.61,1.91.84,2.64a1.83,1.83,0,0,0,.8,1.14,1.39,1.39,0,0,0,.68.16,3.07,3.07,0,0,0,.51-.06,1.38,1.38,0,0,0,.86-.57,1.6,1.6,0,0,0,0-1.29C150.82,348.7,150.52,347.76,150.25,346.83Z" transform="translate(-100.23 -238.55)"/><path class="cls-1" d="M153,346.64h0l.9-.36-.18-.71c-1,.4-1.86.73-2.69,1,0,.07.15.54.19.71l.45-.15.49-.17h0c.3,1.08.62,2.19,1,3.31L154,350c-.34-1.19-.65-2.28-.93-3.32Z" transform="translate(-100.23 -238.55)"/><path class="cls-1" d="M158.42,344.23h0c0-.16-.15-.57-.17-.69-1.14.55-2,.93-2.7,1.26,0,.16.16.63.19.71l.13-.06.81-.36h0c.26.94.54,1.95.92,3.26l.79-.37c-.29-1.05-.6-2.17-.89-3.29h0Z" transform="translate(-100.23 -238.55)"/><path class="cls-1" d="M162.46,345.1l-1.79.88h0l-.1-.39c-.05-.19-.1-.38-.14-.58h0c.15-.07.91-.45,1.14-.55,0-.07-.12-.53-.16-.71l-1.18.56h0l0-.13-.09-.39-.09-.36.12-.06c.53-.26,1.07-.53,1.61-.78l-.07-.29c0-.14-.07-.28-.09-.42l-1.29.63,0,0-1.21.58c.4,1.59.73,2.85,1,4l.73-.37c.53-.27,1.19-.61,1.82-.91l0-.19C162.53,345.44,162.49,345.27,162.46,345.1Z" transform="translate(-100.23 -238.55)"/><path class="cls-1" d="M223.27,340.42c-.6-.27-1.85-.78-2-.83l-.11.31.52.21h0l-1,3.34h0l-.48-.17-.1.34c.6.22,1.24.47,2,.78l.1-.32-.52-.23h0c.38-1.42.67-2.43,1-3.35h0l.51.2Z" transform="translate(-100.23 -238.55)"/><path class="cls-1" d="M231.18,344.3l-1.83,2.44v0s.06-2.47.1-3.28c-.06,0-.65-.34-.89-.49,0,.25,0,3.39-.09,4.63l.95.49,2.64-3.37C231.85,344.63,231.25,344.33,231.18,344.3Z" transform="translate(-100.23 -238.55)"/><path class="cls-1" d="M233.29,346.9l.43-1.12h0l.46.19.14-.32-1.86-.76-.15.33.51.21h0l-1.25,3.35h0l-.45-.18s-.08.21-.12.28c.55.26,1.16.52,1.81.79l.13-.31-.49-.22h0C232.73,348.43,233,347.67,233.29,346.9Z" transform="translate(-100.23 -238.55)"/><path class="cls-1" d="M225.25,341.32a2,2,0,0,0-.66-.16h0c-.52,0-.89.35-1.07,1l-.34,1.21a1.66,1.66,0,0,0,0,1.35,1.76,1.76,0,0,0,.91.79,2.07,2.07,0,0,0,.59.13h0a1.27,1.27,0,0,0,.29,0,1,1,0,0,0,.61-.55h0c.06-.14.08-.18.17-.42l-.83-.38c-.11.41-.27.59-.5.59a.79.79,0,0,1-.2,0,.64.64,0,0,1-.31-.88l.43-1.55a.58.58,0,0,1,.28-.38.43.43,0,0,1,.17,0h0l.2,0c.22.1.44.32.27.84l.82.37A1.57,1.57,0,0,0,226,342,1.8,1.8,0,0,0,225.25,341.32Z" transform="translate(-100.23 -238.55)"/><path class="cls-1" d="M235.81,347h0l.19,0a.79.79,0,0,1,.54.65l.79-.22a1.46,1.46,0,0,0-1.08-1.09,1.54,1.54,0,0,0-.46-.08h-.05a1.19,1.19,0,0,0-1.18.82c-.27.79.17,1.21.68,1.61s.68.55.57.86a.51.51,0,0,1-.53.35l-.2,0a.77.77,0,0,1-.57-.77l-.82.24a1.38,1.38,0,0,0,1.19,1.22,1.76,1.76,0,0,0,.41.07h.1a1.66,1.66,0,0,0,.33,0,1.31,1.31,0,0,0,.93-.89,1.25,1.25,0,0,0,0-.76,1.48,1.48,0,0,0-.52-.67l-.45-.33c-.24-.19-.45-.38-.35-.67A.44.44,0,0,1,235.81,347Z" transform="translate(-100.23 -238.55)"/><path class="cls-1" d="M219.39,340.59l-.43-.33c-.21-.17-.43-.37-.33-.66h0a.43.43,0,0,1,.43-.31.58.58,0,0,1,.19,0,.72.72,0,0,1,.52.64l.76-.22a1.39,1.39,0,0,0-1-1.08,1.75,1.75,0,0,0-.44-.07h0a1.16,1.16,0,0,0-1.15.82c-.27.78.15,1.2.65,1.6s.65.54.54.85a.49.49,0,0,1-.5.35h0a.84.84,0,0,1-.18,0,.75.75,0,0,1-.54-.76l-.8.23a1.37,1.37,0,0,0,1.15,1.22,2.4,2.4,0,0,0,.4.06h.05a1.13,1.13,0,0,0,.35-.05,1.25,1.25,0,0,0,.9-.88,1.19,1.19,0,0,0,0-.75A1.3,1.3,0,0,0,219.39,340.59Z" transform="translate(-100.23 -238.55)"/><path class="cls-1" d="M245.24,342.83c-1.44-2.25-6.73-4.23-14.16-5.28l-.24,0-.87,3.76-.09,0c-.83-.41-1.74-.85-2.76-1.37-6.7-3.37-11.89-5.15-15-5.15a4.37,4.37,0,0,0-2.12.44,2,2,0,0,0-1.09,1.65c-.16,1.65-.5,4.55-.7,6.28l0,.5c0,.19,0,.34-.06.45s0,.24,0,.36h0c-.06,1.68,1.67,2.48,3.32,3.16a26.58,26.58,0,0,1-3,.93q-2.64-1.25-5.21-2.53a15.55,15.55,0,0,1,1.51-1,6.79,6.79,0,0,0,2.11-1.62c.78-1.2.74-2.36-.11-3.12a2.39,2.39,0,0,0-.57-.36h0a13,13,0,0,0-5.49-1.76c2.58-1.7,5-3.44,7.36-5.25a9.59,9.59,0,0,0,3.94.86c5,0,9.63-4.09,11.13-7.9-.72.63-2.21.72-3.93.83h0a20.57,20.57,0,0,0-4,.52,7.46,7.46,0,0,0-.8.26q1.08-1,2.1-2.07a10.63,10.63,0,0,0,2.7.37c5.68,0,9.62-4.95,10.31-8.57-.54.62-1.88.86-3.44,1.13a19.85,19.85,0,0,0-3.65.9,6.79,6.79,0,0,0-1,.47c.66-.88,1.3-1.76,1.89-2.66a10.08,10.08,0,0,0,1.54.12h0a9.85,9.85,0,0,0,4.41-1h0l0,0,0,0,.09,0,.19-.1h0a11.94,11.94,0,0,0,5-5.68,9.88,9.88,0,0,0,.69-2.5c-.5.67-1.8,1-3.31,1.43a19.67,19.67,0,0,0-3.56,1.21,8.42,8.42,0,0,0-2.39,1.83q.83-1.6,1.5-3.27c.21,0,.43,0,.65,0a7.72,7.72,0,0,0,6.3-3.54,16.72,16.72,0,0,0,1.57-3.14A9.87,9.87,0,0,1,237.9,299a11,11,0,0,0-8.53,4.42c.26-1,.48-2.06.67-3.12a7.43,7.43,0,0,0,6.29-4.94,16.39,16.39,0,0,0,.82-3.36h0a9.47,9.47,0,0,1,1-3.45,10.6,10.6,0,0,0-5.26,3,10.85,10.85,0,0,0-2.32,3.76c.07-1.24.08-2.49,0-3.77a8.62,8.62,0,0,0,4.78-4.7,10.05,10.05,0,0,0-.06-7.53c-.06.64-.79,1.31-1.64,2.09h0a13.64,13.64,0,0,0-2.07,2.2,8.78,8.78,0,0,0-1.26,4.33c-.15-1.37-.36-2.77-.63-4.19a8.52,8.52,0,0,0,3.41-5.67,9.92,9.92,0,0,0-1.92-7.14c.1.62-.43,1.44-1,2.39a13.49,13.49,0,0,0-1.43,2.6,6.56,6.56,0,0,0-.34,2.36c-.28-.94-.58-1.89-.91-2.85a8.16,8.16,0,0,0,2.72-5.86,10,10,0,0,0-2.78-6.94,4.13,4.13,0,0,1-.75,2.47,12.59,12.59,0,0,0-1.09,2.7,6.61,6.61,0,0,0,0,2.66c-.38-.9-.79-1.81-1.21-2.73a7.37,7.37,0,0,0,1.86-5.48A9.51,9.51,0,0,0,223,256a4.15,4.15,0,0,1-.36,2.42v0a13.12,13.12,0,0,0-.61,2.47,7.1,7.1,0,0,0,.33,2.81l-.51-1a8.2,8.2,0,0,0-3.48-6.46,12.26,12.26,0,0,0-3-1.37c-1.06-.38-1.91-.68-2.3-1.35a7,7,0,0,0,3.48,7c.83.42,1.6.76,2.22,1a10,10,0,0,1,2.65,1.46c.62,1.15,1.21,2.29,1.76,3.41l-.31-.31-.26-.23a19.4,19.4,0,0,0-2.81-1.75h0c-1.22-.67-2.29-1.25-2.55-1.88a8.88,8.88,0,0,0,8.58,10.17q.93,2.41,1.64,4.76a17.82,17.82,0,0,0-2.23-2.2h0c-1-.91-1.93-1.7-2-2.36a8.29,8.29,0,0,0,.07,6.63,9,9,0,0,0,5.89,5.09,49.94,49.94,0,0,1,.59,5l0-.1a18,18,0,0,0-1.92-2.72c-.86-1.07-1.61-2-1.59-2.68a8.78,8.78,0,0,0-1.22,6.94,9,9,0,0,0,4.64,5.94,42.44,42.44,0,0,1-.72,4.58,24.43,24.43,0,0,0-.81-2.37h0c-.5-1.29-.93-2.42-.66-3.07a9.29,9.29,0,0,0-3.76,6.75,8.49,8.49,0,0,0,2.63,6.78,46.13,46.13,0,0,1-2.94,5.61,5.93,5.93,0,0,0,.2-.91,20.72,20.72,0,0,0,.07-3.77c-.07-1.56-.13-2.9.34-3.53a11,11,0,0,0-5.75,6.31,10.37,10.37,0,0,0,.47,8.37c-1.29,1.53-2.68,3-4.15,4.46a8.52,8.52,0,0,0,.89-1.82,21,21,0,0,0,.76-4h0c.22-1.7.41-3.17,1.08-3.85a13.2,13.2,0,0,0-5.09,3.28l0,0,0,0a1.54,1.54,0,0,0-.17.19s0,0,0,0l0,0-.2.22h0v0a13.13,13.13,0,0,0-2,3,9.78,9.78,0,0,0-.48,7.51A109,109,0,0,1,198.86,338V335.6h0c.32-1,1.54-1.43,2.82-1.93a9.29,9.29,0,0,0,2.52-1.26,3.26,3.26,0,0,0,1.37-2.18,2.44,2.44,0,0,0-.49-1.7l-.28-.25h0c-1-.89-5-2.15-6.45-2.15h-.15a10.43,10.43,0,0,0-2.39.5A6.68,6.68,0,0,1,194,327a7.37,7.37,0,0,1-1.92-.39,10.41,10.41,0,0,0-2.4-.5h-.14c-1.47,0-5.46,1.26-6.46,2.15h0a3.48,3.48,0,0,0-.3.26,2.45,2.45,0,0,0-.48,1.69,3.27,3.27,0,0,0,1.38,2.18,9.38,9.38,0,0,0,2.53,1.27c1.21.47,2.36.91,2.69,1.79h0s0,.1,0,.16V338a111.8,111.8,0,0,1-10.35-7.34,9.78,9.78,0,0,0-.48-7.51,12.82,12.82,0,0,0-2-3v0h0l-.2-.22v0l0,0-.18-.19,0,0,0,0a13.13,13.13,0,0,0-5.09-3.28c.68.68.87,2.15,1.09,3.85h0a21,21,0,0,0,.76,4,8.11,8.11,0,0,0,.9,1.82q-2.22-2.16-4.15-4.46a10.45,10.45,0,0,0,.47-8.37,11.08,11.08,0,0,0-5.76-6.31c.47.63.41,2,.35,3.53a19.84,19.84,0,0,0,.06,3.77,5.93,5.93,0,0,0,.2.91,47.58,47.58,0,0,1-2.94-5.61,8.49,8.49,0,0,0,2.63-6.78,9.29,9.29,0,0,0-3.76-6.75c.27.65-.16,1.78-.66,3.07h0c-.28.75-.59,1.56-.81,2.37a42.44,42.44,0,0,1-.72-4.58,9,9,0,0,0,4.64-5.94,8.78,8.78,0,0,0-1.22-6.94c0,.67-.72,1.61-1.59,2.68a18,18,0,0,0-1.92,2.72.42.42,0,0,0,0,.1,47.13,47.13,0,0,1,.58-5,9,9,0,0,0,5.89-5.09,8.34,8.34,0,0,0,.08-6.63c-.1.66-1,1.45-2,2.36h0a18.52,18.52,0,0,0-2.23,2.2q.71-2.34,1.64-4.76a8.87,8.87,0,0,0,8.58-10.17c-.26.63-1.32,1.21-2.55,1.88h0a18.77,18.77,0,0,0-2.8,1.75l-.26.23-.32.31c.55-1.12,1.14-2.26,1.77-3.41A9.76,9.76,0,0,1,169,261.6c.62-.27,1.39-.61,2.23-1a7,7,0,0,0,3.47-7c-.38.67-1.23,1-2.3,1.35a12.26,12.26,0,0,0-3,1.37,8.22,8.22,0,0,0-3.48,6.46l-.51,1a7.1,7.1,0,0,0,.33-2.81,13.12,13.12,0,0,0-.61-2.47v0a4.15,4.15,0,0,1-.36-2.42,9.51,9.51,0,0,0-3.23,6.28,7.38,7.38,0,0,0,1.87,5.48c-.43.92-.84,1.83-1.22,2.73a6.61,6.61,0,0,0,0-2.66,12.11,12.11,0,0,0-1.1-2.7,4.2,4.2,0,0,1-.75-2.47,10,10,0,0,0-2.78,6.94,8.16,8.16,0,0,0,2.72,5.86c-.33,1-.63,1.91-.91,2.85a6.34,6.34,0,0,0-.34-2.36,13,13,0,0,0-1.43-2.6c-.62-.95-1.15-1.77-1-2.39a10,10,0,0,0-1.92,7.14,8.52,8.52,0,0,0,3.41,5.67c-.27,1.42-.48,2.82-.63,4.19a8.78,8.78,0,0,0-1.26-4.33,13.64,13.64,0,0,0-2.07-2.2h0c-.84-.78-1.58-1.45-1.64-2.09a10.05,10.05,0,0,0-.06,7.53,8.62,8.62,0,0,0,4.78,4.7c0,1.28,0,2.53,0,3.77a10.85,10.85,0,0,0-2.32-3.76,10.6,10.6,0,0,0-5.26-3,9.47,9.47,0,0,1,1,3.45h0a16.39,16.39,0,0,0,.82,3.36,7.43,7.43,0,0,0,6.29,4.94c.19,1.06.41,2.1.67,3.12a11,11,0,0,0-8.53-4.42,9.87,9.87,0,0,1,1.82,3.23,16.21,16.21,0,0,0,1.58,3.14,7.69,7.69,0,0,0,6.29,3.54c.22,0,.44,0,.65,0q.67,1.67,1.5,3.27a8.42,8.42,0,0,0-2.39-1.83,19.67,19.67,0,0,0-3.56-1.21c-1.5-.41-2.81-.76-3.31-1.43a9.88,9.88,0,0,0,.69,2.5,11.94,11.94,0,0,0,5,5.68h0l.19.1.09,0,0,0,0,0h0a9.89,9.89,0,0,0,4.41,1h0a10.08,10.08,0,0,0,1.54-.12c.6.9,1.23,1.78,1.89,2.66a7.22,7.22,0,0,0-1-.47,20,20,0,0,0-3.66-.9c-1.55-.27-2.9-.51-3.44-1.13.69,3.62,4.63,8.57,10.31,8.57a10.57,10.57,0,0,0,2.7-.37q1,1,2.1,2.07a7.3,7.3,0,0,0-.79-.26,20.78,20.78,0,0,0-4-.52h0c-1.72-.11-3.21-.2-3.93-.83,1.5,3.81,6.16,7.9,11.13,7.9a9.59,9.59,0,0,0,3.94-.86c2.33,1.81,4.78,3.55,7.36,5.25a12.42,12.42,0,0,0-5.37,1.76h0a2.39,2.39,0,0,0-.57.36c-.85.76-.9,1.92-.11,3.12a6.44,6.44,0,0,0,2.12,1.62c.49.29,1,.6,1.45.93-1.73.87-3.5,1.73-5.29,2.57a26.58,26.58,0,0,1-3-.93c1.79-.74,3.69-1.61,3.27-3.61,0-.1,0-.23,0-.38-.21-1.76-.58-5-.76-6.76a2,2,0,0,0-1.08-1.65,4.44,4.44,0,0,0-2.13-.44c-3.12,0-8.31,1.78-15,5.15-1,.5-1.89.94-2.77,1.37l-.08,0-.86-3.77-.31,0c-7.4,1.06-12.67,3-14.11,5.28a2.27,2.27,0,0,0-.31,1.94l0,.06h0l2.15,7.09a2.27,2.27,0,0,0,1.35,1.46,4.88,4.88,0,0,0,1.88.32c3,0,8-1.78,14.52-5.13a80.62,80.62,0,0,1,9.67-4.35c.15,2,.17,4.32.17,6.31v0h0c0,.05,0,.1,0,.15a3.52,3.52,0,0,0,.17,1.07c-1.17.51-2.35,1-3.54,1.52.85.15,1.73.61,2.67.73l1.71-.78a7.93,7.93,0,0,0,2,1.63,24.18,24.18,0,0,0,7.07,2.48,19.84,19.84,0,0,0,1.35,2.59l.43.72.17-.83a4.22,4.22,0,0,1,.93-2,61.6,61.6,0,0,0,8.86.69h0a61.47,61.47,0,0,0,9-.71,4.26,4.26,0,0,1,.94,2l.16.78v.05l.43-.72a19,19,0,0,0,1.36-2.62,24.21,24.21,0,0,0,7-2.47,8,8,0,0,0,2-1.61l1.72.78c.93-.12,1.81-.58,2.66-.73-1.19-.5-2.37-1-3.54-1.52a3.52,3.52,0,0,0,.17-1.07,2.64,2.64,0,0,0,0-.28c0-2.21,0-4.34.15-6.21a80.24,80.24,0,0,1,9.72,4.36c6.48,3.35,11.5,5.13,14.51,5.13a4.88,4.88,0,0,0,1.88-.32,2.26,2.26,0,0,0,1.36-1.46l2.14-7.07v0h0l0-.06A2.27,2.27,0,0,0,245.24,342.83ZM231.05,288a10.73,10.73,0,0,1,.86-3.39,8.14,8.14,0,0,1,2.15-2.54h0a6,6,0,0,0,1.1-1.15l0-.06,0,.07a10.17,10.17,0,0,1-.07,4.54,8.33,8.33,0,0,1-1.31,2.81,8.53,8.53,0,0,1-2.65,2.36,21.18,21.18,0,0,0,2.37-5.14c-.55.91-1.78,3.35-2.59,4.39A14.42,14.42,0,0,1,231.05,288Zm-4.85-19.37a7.72,7.72,0,0,1,1-3.05h0a5.82,5.82,0,0,0,.59-1.42v-.06l0,.05a9.86,9.86,0,0,1,1.58,4.15,7.77,7.77,0,0,1-1.81,6.14,19.34,19.34,0,0,0,.35-6,29.89,29.89,0,0,1-.79,5.26,15.72,15.72,0,0,1-.57-1.66A10.12,10.12,0,0,1,226.2,268.61Zm-6.82-.45a9.32,9.32,0,0,1-1.48-4.35v-.06l0,0a8.87,8.87,0,0,0,1.87,1.11h0a9.73,9.73,0,0,1,2.84,1.87,10.85,10.85,0,0,1,1.78,2.69,12.65,12.65,0,0,1,.75,2,40.44,40.44,0,0,1-4.37-3.82,25.85,25.85,0,0,0,3.75,4,8.54,8.54,0,0,1-3-1.2A7.84,7.84,0,0,1,219.38,268.16ZM225.86,319a9.49,9.49,0,0,0,2.49-.62l.06,0,0,.07a12.79,12.79,0,0,1-2.78,3.84,10,10,0,0,1-2.77,1.83,9.52,9.52,0,0,1-3.8.77l-.85,0a29.25,29.25,0,0,0,5.93-3.43,63.63,63.63,0,0,1-6.63,3.1,15.19,15.19,0,0,1,1.56-2,13.09,13.09,0,0,1,2.93-2.38A12.31,12.31,0,0,1,225.86,319Zm2.38-7.72a10.52,10.52,0,0,1,3.5-1.34h0a9.62,9.62,0,0,0,2.57-.91l.07,0,0,.07a14.59,14.59,0,0,1-2.89,4.34,9.19,9.19,0,0,1-6.73,2.89h-.29a36.7,36.7,0,0,0,6-3.86c-1.65.88-4.49,2.6-6.33,3.35a15.59,15.59,0,0,1,1.31-1.88A13.6,13.6,0,0,1,228.24,311.32Zm1.91-7.68a11.17,11.17,0,0,1,2.58-2.23A11,11,0,0,1,236.3,300l.08,0,0,.07a8.78,8.78,0,0,0-.55,1.21h0a16.4,16.4,0,0,1-2.45,4.47,7.81,7.81,0,0,1-2.29,1.89,7.14,7.14,0,0,1-3,.8,24.74,24.74,0,0,0,5.36-5.4,66.46,66.46,0,0,1-5.4,4.84c.27-.7.51-1.41.74-2.12A11.58,11.58,0,0,1,230.15,303.64Zm.8-7.33v0h0v0h0A11.15,11.15,0,0,1,232.1,294h0l-.05,0h.06a10.89,10.89,0,0,1,1.62-2,10.73,10.73,0,0,1,3.14-2.12l.06,0,0,.07a9.71,9.71,0,0,0-.25,1.27v0a16,16,0,0,1-1.37,4.83,7.57,7.57,0,0,1-1.82,2.32,7.15,7.15,0,0,1-3,1.49,18.51,18.51,0,0,0,3.4-5,48.74,48.74,0,0,1-3.43,4.05,9.58,9.58,0,0,1,.24-1.42C230.72,297,230.83,296.67,231,296.31Zm-1.7-19.51a8.23,8.23,0,0,1,1.42-3h0a5.64,5.64,0,0,0,.77-1.37l0-.06,0,.06a9.92,9.92,0,0,1,1,4.33,8.26,8.26,0,0,1-.54,3,8.43,8.43,0,0,1-1.86,2.83,32.84,32.84,0,0,0,1-5.74,49.66,49.66,0,0,1-1.4,5.24,17.33,17.33,0,0,1-.42-1.89A11,11,0,0,1,229.25,276.8Zm-6.06-18.15h0a6,6,0,0,0,.32-1.33v-.06l0,.05a9.25,9.25,0,0,1,1.86,3.71,7.1,7.1,0,0,1-1,5.78,33,33,0,0,0-.33-5.58s-.09,3.4-.21,4.73a11.19,11.19,0,0,1-.54-1.31,12,12,0,0,1-.65-3.06A8.13,8.13,0,0,1,223.19,258.65Zm-3.44,2.6a23.18,23.18,0,0,1-3-1.35,5.48,5.48,0,0,1-2.24-2.26,6.69,6.69,0,0,1-.71-2.59V255l.05,0a4.94,4.94,0,0,0,.77.3h0a19.62,19.62,0,0,1,3.19,1.37,5.74,5.74,0,0,1,1.39,1.08,7.71,7.71,0,0,1,1,1.39,6.4,6.4,0,0,1,.87,2.43,18,18,0,0,0-3.77-3.36,33,33,0,0,1,3,3.23l-.56-.21Zm5.72,20.08a8,8,0,0,1-1.62-2.68,8.66,8.66,0,0,1-.39-4.43v-.06l0,0a8.66,8.66,0,0,0,1.53,1.46h0a9.51,9.51,0,0,1,2.33,2.45,10.46,10.46,0,0,1,1.1,3,13.15,13.15,0,0,1,.24,1.81,42.54,42.54,0,0,1-3.27-4.43,16.79,16.79,0,0,0,3,4.85A8.94,8.94,0,0,1,225.47,281.33Zm1.32,11.81a7.82,7.82,0,0,1-1.13-3,8.92,8.92,0,0,1,0-2.73,7.59,7.59,0,0,1,.49-1.88l0-.05,0,.05a9.17,9.17,0,0,0,1.25,1.71h0a9.28,9.28,0,0,1,1.91,2.88,10.86,10.86,0,0,1,.52,2.81c0,.86,0,1.71-.11,2.56a33,33,0,0,1-2.48-5.13,24,24,0,0,0,1.88,5.26A8.81,8.81,0,0,1,226.79,293.14Zm-2.14,8.67a9.7,9.7,0,0,1,2.14-4.36l0,0v.06a7.85,7.85,0,0,0,.68,2,8.91,8.91,0,0,1,.92,3.35c0,.24,0,.47,0,.71a41.44,41.44,0,0,1-1.56,4.64,36.41,36.41,0,0,1-.48-7,24,24,0,0,0,0,7,8.27,8.27,0,0,1-1.59-3.14A7.54,7.54,0,0,1,224.65,301.81Zm-6.19,14.29a10,10,0,0,1,1-3.66,12,12,0,0,1,3.5-4.27l.05,0v.07a10.26,10.26,0,0,0,0,2.2,13.34,13.34,0,0,1-.27,4.29,14.09,14.09,0,0,1-1.67,3.53,18,18,0,0,1-1.35,1.81,37.69,37.69,0,0,1,1.16-6.54,27.34,27.34,0,0,0-1.72,6.87A9.77,9.77,0,0,1,218.46,316.1Zm-53.27-49.33A9.73,9.73,0,0,1,168,264.9h0a9,9,0,0,0,1.86-1.11l0,0v.06a9.32,9.32,0,0,1-1.48,4.35,7.84,7.84,0,0,1-2.22,2.26,8.46,8.46,0,0,1-3,1.2,25.37,25.37,0,0,0,3.75-4,40.44,40.44,0,0,1-4.37,3.82,12.65,12.65,0,0,1,.75-2A10.85,10.85,0,0,1,165.19,266.77Zm-6.64,4.51a7.9,7.9,0,0,1-.16-3,9.75,9.75,0,0,1,1.57-4.15l0-.05v.06a5.82,5.82,0,0,0,.59,1.42h0a7.89,7.89,0,0,1,1.05,3.05,10.42,10.42,0,0,1-.45,3.37,15.72,15.72,0,0,1-.57,1.66,29.89,29.89,0,0,1-.79-5.26,19.34,19.34,0,0,0,.35,6A8,8,0,0,1,158.55,271.28Zm-4.55,17a8.13,8.13,0,0,1-1.3-2.81,10.07,10.07,0,0,1-.08-4.54l0-.07,0,.06a6,6,0,0,0,1.1,1.15h0a8.11,8.11,0,0,1,2.14,2.54,10.73,10.73,0,0,1,.86,3.39,14.42,14.42,0,0,1,.08,1.88c-.8-1-2-3.48-2.58-4.39a20.73,20.73,0,0,0,2.36,5.14A8.64,8.64,0,0,1,154,288.25Zm10.84,19.95,0-.07.06,0a12.05,12.05,0,0,1,3.49,4.27,10,10,0,0,1,1,3.66,9.77,9.77,0,0,1-.67,4.26,27.84,27.84,0,0,0-1.71-6.87,38.73,38.73,0,0,1,1.15,6.54,16.73,16.73,0,0,1-1.34-1.81,13.79,13.79,0,0,1-1.68-3.53,13.34,13.34,0,0,1-.27-4.29A11.09,11.09,0,0,0,164.84,308.2Zm-5.43-5.34a8.91,8.91,0,0,1,.92-3.35,7.85,7.85,0,0,0,.68-2v-.06l0,0a8.9,8.9,0,0,1,1.17,1.7,9.39,9.39,0,0,1,1,2.66,7.54,7.54,0,0,1-.07,3.28,8.3,8.3,0,0,1-1.6,3.14,24,24,0,0,0,0-7,36.41,36.41,0,0,1-.48,7,43.58,43.58,0,0,1-1.56-4.64C159.43,303.33,159.42,303.1,159.41,302.86Zm-.93-12.76a9.28,9.28,0,0,1,1.91-2.88h0a9.17,9.17,0,0,0,1.25-1.71l0-.05,0,.05a8.58,8.58,0,0,1,.49,1.88,9.24,9.24,0,0,1,0,2.73,7.82,7.82,0,0,1-1.13,3,8.81,8.81,0,0,1-2.38,2.46,23.48,23.48,0,0,0,1.88-5.26,33,33,0,0,1-2.48,5.13c-.06-.85-.09-1.7-.11-2.56A10.86,10.86,0,0,1,158.48,290.1Zm4.32-14.42h0a8.66,8.66,0,0,0,1.53-1.46l0,0v.06a8.54,8.54,0,0,1-.39,4.43,8,8,0,0,1-1.62,2.68,8.84,8.84,0,0,1-2.93,2,16.79,16.79,0,0,0,3-4.85,43.79,43.79,0,0,1-3.26,4.43,11.55,11.55,0,0,1,.23-1.81,10.46,10.46,0,0,1,1.1-3A9.51,9.51,0,0,1,162.8,275.68Zm5.89-17.91a5.74,5.74,0,0,1,1.39-1.08,19.62,19.62,0,0,1,3.19-1.37h0a4.94,4.94,0,0,0,.77-.3l.05,0v.06a6.69,6.69,0,0,1-.71,2.59,5.42,5.42,0,0,1-2.24,2.26,23.18,23.18,0,0,1-3,1.35h0l-.56.21a34.35,34.35,0,0,1,3-3.23,18,18,0,0,0-3.77,3.36,6.4,6.4,0,0,1,.87-2.43A7.71,7.71,0,0,1,168.69,257.77ZM162.43,261a9.39,9.39,0,0,1,1.86-3.71l0-.05v.06a6.62,6.62,0,0,0,.32,1.33h0a8.13,8.13,0,0,1,.51,2.92,11.58,11.58,0,0,1-.65,3.06,13.23,13.23,0,0,1-.53,1.31c-.13-1.33-.22-4.73-.22-4.73a33,33,0,0,0-.33,5.58,7.21,7.21,0,0,1-1-5.78Zm-6.58,18.78a8.06,8.06,0,0,1-.55-3,9.92,9.92,0,0,1,1-4.33l0-.06,0,.06a5.64,5.64,0,0,0,.77,1.37h0a8.23,8.23,0,0,1,1.42,3,10.68,10.68,0,0,1,0,3.43,13.63,13.63,0,0,1-.42,1.89,52.22,52.22,0,0,1-1.4-5.24,32.84,32.84,0,0,0,.95,5.74A8.4,8.4,0,0,1,155.85,279.79ZM152.58,296a15.75,15.75,0,0,1-1.38-4.83v0a8.27,8.27,0,0,0-.25-1.27l0-.07.07,0a10.68,10.68,0,0,1,3.13,2.12,10.5,10.5,0,0,1,1.62,2h.06l-.05,0h0a11.15,11.15,0,0,1,1.14,2.37h0v0h0v0c.12.36.23.72.31,1.07a9.58,9.58,0,0,1,.24,1.42,50.76,50.76,0,0,1-3.43-4.05,18.75,18.75,0,0,0,3.4,5,7.15,7.15,0,0,1-3-1.49A7.54,7.54,0,0,1,152.58,296Zm4.21,11.64a7.81,7.81,0,0,1-2.29-1.89,16.4,16.4,0,0,1-2.45-4.47h0a10.5,10.5,0,0,0-.54-1.21l0-.07.08,0a11,11,0,0,1,3.57,1.44,11.43,11.43,0,0,1,2.59,2.23,12.06,12.06,0,0,1,1.42,2.07c.23.71.47,1.42.74,2.12a66.46,66.46,0,0,1-5.4-4.84,25,25,0,0,0,5.36,5.4A7.14,7.14,0,0,1,156.79,307.59Zm-.43,5.85a14.59,14.59,0,0,1-2.89-4.34l0-.07.07,0a9.62,9.62,0,0,0,2.57.91h0a10.44,10.44,0,0,1,3.5,1.34,13.6,13.6,0,0,1,2.77,2.62,14.5,14.5,0,0,1,1.31,1.88c-1.84-.75-4.68-2.47-6.33-3.35a36.7,36.7,0,0,0,6,3.86h-.29A9.19,9.19,0,0,1,156.36,313.44ZM165,324.13a9.83,9.83,0,0,1-2.76-1.83,12.69,12.69,0,0,1-2.79-3.84l0-.07.06,0A9.7,9.7,0,0,0,162,319a12.37,12.37,0,0,1,3.9,1.12,13.28,13.28,0,0,1,2.92,2.38,15.19,15.19,0,0,1,1.56,2,63.63,63.63,0,0,1-6.63-3.1,29.25,29.25,0,0,0,5.93,3.43c-.28,0-.57,0-.85,0A9.52,9.52,0,0,1,165,324.13Zm43.69,20.29h0v0c0-.07,0-.18,0-.31h0a1.11,1.11,0,0,1,.66-.83,3.21,3.21,0,0,1,1.31-.23,16,16,0,0,1,4.58,1c-.12,1.5-.15,3.15-.16,5a8.69,8.69,0,0,0-3.27-1.9C209.89,346.25,208.65,345.64,208.7,344.42Zm-6.79,3.22a1.77,1.77,0,0,1,.27-.71c1.28.7,2.58,1.39,3.89,2.07-1.07.2-2.21.38-3.41.54A2.77,2.77,0,0,1,201.91,347.64Zm4.31-6.9c.6.53.6,1.36,0,2.27a6.29,6.29,0,0,1-1.91,1.42h0a14.55,14.55,0,0,0-1.81,1.2c-1.31-.67-2.61-1.34-3.89-2a19.47,19.47,0,0,0,4.65-2.75,2.45,2.45,0,0,1,1.61-.6A2.08,2.08,0,0,1,206.22,340.74ZM197.44,350c-1.21.06-2.39.1-3.52.1s-2.23,0-3.4-.09a5,5,0,0,0,1.83-3.47,3.19,3.19,0,0,0-.92-2,9.72,9.72,0,0,0,2.46.32h.05a10.64,10.64,0,0,0,2.67-.39,3.19,3.19,0,0,0-1,2.08A4.9,4.9,0,0,0,197.44,350Zm-3.53-5.79a10.12,10.12,0,0,1-2.67-.4l2.55-1.48h.26l2.52,1.46A9.57,9.57,0,0,1,193.91,344.21Zm0-10.4h-.67a3.8,3.8,0,0,0-1.08-2.73,10.33,10.33,0,0,0,1.84.2,9.37,9.37,0,0,0,1.77-.19,3.81,3.81,0,0,0-1.07,2.72Zm0,.61c3.92,0,4.34.63,4.34,1.22v5c0,.9-1.79,1.09-4.35,1.1s-4.34-.2-4.34-1.1v-5C189.57,335.05,190,334.43,193.92,334.42Zm6.6,4.34a9.71,9.71,0,0,1,3.72.93,3.11,3.11,0,0,0-1.41.69,20.41,20.41,0,0,1-5,2.85l-1.78-1c1.59-.14,2.76-.54,2.76-1.63v-1.4l.51-.32A4.71,4.71,0,0,1,200.52,338.76ZM214.66,328a12.94,12.94,0,0,1,4.48-.71,11.66,11.66,0,0,0,2.45-.27l.06,0,0,.06a15.29,15.29,0,0,1-3.31,3.56,11.77,11.77,0,0,1-2.77,1.59,9.25,9.25,0,0,1-3.43.66,9.82,9.82,0,0,1-2.26-.27,21.8,21.8,0,0,0,6.42-2.45,31.81,31.81,0,0,1-7.15,2,19.27,19.27,0,0,1,1.6-1.6l.66-.56A14.46,14.46,0,0,1,214.66,328Zm-4.9-2.74a10.05,10.05,0,0,1,1.67-3.6,14.83,14.83,0,0,1,4.51-4l.07,0,0,.07a11.38,11.38,0,0,0-.42,2.42,13.18,13.18,0,0,1-1,4.43,16.88,16.88,0,0,1-4.38,5.16,40.09,40.09,0,0,1,2.59-6.81,28.87,28.87,0,0,0-3.06,6.42A9.5,9.5,0,0,1,209.76,325.29ZM205,330.18a2.73,2.73,0,0,1-1.15,1.77,9.19,9.19,0,0,1-2.37,1.17,6.11,6.11,0,0,0-2.86,1.71c-.43-.59-1.47-.89-3.31-1A3.26,3.26,0,0,1,196.9,331l.23-.18h0c.68-.21,1.46-.47,2.38-.82.53-.21,1.06-.46,1.52-.68a6.4,6.4,0,0,1,2.47-.84,1.57,1.57,0,0,1,1.17.52A1.84,1.84,0,0,1,205,330.18Zm-15.33-3.44h0a9.64,9.64,0,0,1,2.27.49,8.37,8.37,0,0,0,2.06.41h.06a7.61,7.61,0,0,0,2-.41,9.6,9.6,0,0,1,2.26-.49h.11a16.43,16.43,0,0,1,4.43,1.17,10.43,10.43,0,0,0-2.09.83c-.47.22-.95.45-1.44.64a15.05,15.05,0,0,1-5.28,1.3,15.3,15.3,0,0,1-5.34-1.3c-.48-.18-.95-.41-1.48-.66a9.92,9.92,0,0,0-2.05-.81A17.11,17.11,0,0,1,189.68,326.74Zm-3.21,6.39A9.21,9.21,0,0,1,184.1,332a2.71,2.71,0,0,1-1.14-1.76,1.8,1.8,0,0,1,.33-1.23,1.53,1.53,0,0,1,1.18-.53,6.4,6.4,0,0,1,2.47.84c.46.22,1,.48,1.52.68.91.34,1.69.61,2.38.81h0l.23.18a3.27,3.27,0,0,1,1.59,2.89c-1.87.08-2.94.36-3.4.94A5.86,5.86,0,0,0,186.47,333.13Zm-14.19-13a11.38,11.38,0,0,0-.42-2.42l0-.07.06,0a15,15,0,0,1,4.52,4,10.2,10.2,0,0,1,1.66,3.6,9.5,9.5,0,0,1,0,4,28.87,28.87,0,0,0-3.06-6.42,40.89,40.89,0,0,1,2.6,6.81,16.61,16.61,0,0,1-4.38-5.16A13,13,0,0,1,172.28,320.1Zm3.46,12.8a9.29,9.29,0,0,1-3.43-.66,11.77,11.77,0,0,1-2.77-1.59,15.29,15.29,0,0,1-3.31-3.56l0-.06.06,0a11.66,11.66,0,0,0,2.45.27,12.94,12.94,0,0,1,4.48.71,14.46,14.46,0,0,1,3.29,2l.66.56a16.49,16.49,0,0,1,1.6,1.6,31.81,31.81,0,0,1-7.15-2,21.8,21.8,0,0,0,6.42,2.45A9.82,9.82,0,0,1,175.74,332.9Zm11.54,5.86a4.68,4.68,0,0,1,1.26.18l.42.27v1.41c0,1.1,1.18,1.49,2.78,1.63l-1.81,1h0a18.49,18.49,0,0,1-4.78-2.86,3.08,3.08,0,0,0-1.43-.69A9.08,9.08,0,0,1,187.28,338.76Zm-3.63,5.67h0a6.09,6.09,0,0,1-1.88-1.41c-.6-.91-.6-1.74,0-2.27a2.06,2.06,0,0,1,1.36-.47,2.47,2.47,0,0,1,1.61.6,18.38,18.38,0,0,0,4.49,2.76c-1.24.66-2.51,1.32-3.79,2A14.26,14.26,0,0,0,183.65,344.43Zm2.11,2.45a1.69,1.69,0,0,1,.29.76,2.7,2.7,0,0,1-.75,1.91c-1.25-.16-2.42-.34-3.53-.55C183.12,348.3,184.45,347.6,185.76,346.88Zm-6.66-2.8c0,.14,0,.27,0,.31v0h0c.06,1.23-1.18,1.84-3.16,2.65a8.56,8.56,0,0,0-3.29,1.93c0-1.66-.05-3.41-.17-5a15.67,15.67,0,0,1,4.61-1,3.21,3.21,0,0,1,1.31.23,1.11,1.11,0,0,1,.66.83Zm-36.19.5a1.63,1.63,0,0,1,.24-1.4c1.26-2,6.48-3.92,13.29-4.94h.07l.77,3.34-.05,0c-6,2.89-9.88,4.24-12.12,4.24a3.2,3.2,0,0,1-1.28-.22A1.55,1.55,0,0,1,142.91,344.58Zm19,3.41c-8.08,4.18-12.19,5.06-14.21,5.06a4.29,4.29,0,0,1-1.64-.27,1.6,1.6,0,0,1-1-1l-1.7-5.61.19.09a4,4,0,0,0,1.55.27c3.44,0,9.67-2.9,15.9-6,8.35-4.2,12.59-5.08,14.68-5.08a3.84,3.84,0,0,1,1.84.35,1.38,1.38,0,0,1,.76,1.15c.15,1.58.46,4.25.65,5.93a1.71,1.71,0,0,0-.23-.13,3.78,3.78,0,0,0-1.58-.29C173.51,342.38,166.86,345.43,161.91,348Zm10.79,2.71c0-1.42,1.34-2.13,2.91-2.79a22.15,22.15,0,0,0,3,1q-2.83,1.32-5.75,2.59A2.79,2.79,0,0,1,172.7,350.7Zm9.22,5.93c-4-.9-6.86-2.17-8.24-3.67,2.44-1.12,4.83-2.29,7.17-3.49,1.22.26,2.53.48,3.92.67l-.25.25C181.9,352.88,181.31,354.59,181.92,356.63Zm1.83,2.16-.06.15-.08-.14c-1.86-3.29-1.92-4.82,1.36-7.94,1.28-1.22,1.84-2.3,1.73-3.29a2.21,2.21,0,0,0-.37-1q2-1.1,4-2.21a3.1,3.1,0,0,1,1.41,2.21c.07,1.6-1.77,3.17-3.4,4.56s-2.8,2.4-2.61,3.5a1.76,1.76,0,0,0,1,1.16l.12.08-.13.06A5.2,5.2,0,0,0,183.75,358.79Zm10.18-.88a59.8,59.8,0,0,1-8.31-.61,7.41,7.41,0,0,1,2.11-1.12l.81-.3-.81-.3c-.86-.32-1.33-.68-1.4-1.06-.13-.73,1.1-1.78,2.4-2.89h0l1.14-1c1.38.08,2.73.13,4,.13h0c1.34,0,2.73-.05,4.14-.14.39.35.79.7,1.18,1l0,0c1.28,1.1,2.49,2.13,2.36,2.86-.07.38-.54.74-1.4,1.06l-.81.3.81.3a7.27,7.27,0,0,1,2.09,1.11A59.46,59.46,0,0,1,193.93,357.91Zm10.43.89-.08.14-.06-.15a5.19,5.19,0,0,0-2.9-2.86l-.13-.06.13-.08a1.76,1.76,0,0,0,1-1.16c.19-1.1-1.11-2.21-2.62-3.5-.44-.37-.89-.76-1.32-1.16v0h0c-1.15-1.07-2.11-2.22-2-3.38a3.08,3.08,0,0,1,1.36-2.18c1.31.75,2.63,1.5,4,2.23a2.39,2.39,0,0,0-.33.95c-.11,1,.45,2.07,1.73,3.29C206.28,354,206.22,355.51,204.36,358.8Zm8.08-4.49a23,23,0,0,1-6.38,2.3c.59-2,0-3.74-2.61-6.22-.1-.09-.18-.18-.27-.27,1.35-.18,2.62-.4,3.81-.65,2.34,1.2,4.74,2.37,7.18,3.49A7.12,7.12,0,0,1,212.44,354.31Zm-3.17-5.39a22.15,22.15,0,0,0,3-1c1.45.62,2.72,1.27,2.89,2.5v.18h0a.41.41,0,0,1,0,.11,3.1,3.1,0,0,1-.11.81Q212.11,350.24,209.27,348.92Zm33.5,2.81a1.61,1.61,0,0,1-1,1,4.22,4.22,0,0,1-1.64.27c-2,0-6.13-.88-14.2-5.06-4.95-2.56-11.61-5.61-15.24-5.61a3.7,3.7,0,0,0-1.57.29,1.36,1.36,0,0,0-.24.13c.24-2,.51-4.47.65-5.93a1.4,1.4,0,0,1,.76-1.15,3.91,3.91,0,0,1,1.84-.35c2.09,0,6.33.88,14.69,5.08,6.22,3.13,12.45,6,15.89,6a3.88,3.88,0,0,0,1.55-.27l.2-.1Zm2.16-7.15a1.56,1.56,0,0,1-.91,1,3.28,3.28,0,0,1-1.29.22c-2.24,0-6.09-1.35-12.11-4.24l-.06,0,.77-3.34h.07c6.81,1,12,3,13.29,4.94A1.63,1.63,0,0,1,244.93,344.58Z" transform="translate(-100.23 -238.55)"/></svg>